<?xml version="1.0"?><svg width="474.00412" height="446.67596" xmlns="http://www.w3.org/2000/svg" xmlns:xlink="http://www.w3.org/1999/xlink">
 <title>Owl2</title>
 <defs>
  <pattern patternUnits="userSpaceOnUse" width="2" height="1" patternTransform="matrix(0, 4.47214, -4.47214, 0, -49.0041, -3.03223e-06)" id="Strips1_1">
   <rect x="0" y="-0.5" width="1" height="2" id="rect3917" fill="black"/>
  </pattern>
  <linearGradient id="linearGradient4098">
   <stop id="stop4100" offset="0" stop-color="#ffb142"/>
   <stop id="stop4104" offset="1" stop-color="#c87600"/>
  </linearGradient>
  <linearGradient x1="0.440936" y1="0.634575" x2="0.666877" y2="0.634575" id="linearGradient3211" xlink:href="#linearGradient4098"/>
  <linearGradient x1="-0.736836" y1="Infinity" x2="-0.736838" y2="Infinity" id="linearGradient3327" xlink:href="#linearGradient4098"/>
  <linearGradient x1="-0.140346" y1="Infinity" x2="-0.140348" y2="Infinity" id="linearGradient3329" xlink:href="#linearGradient4098"/>
  <linearGradient x1="-1.350871" y1="Infinity" x2="-1.350873" y2="Infinity" id="linearGradient3331" xlink:href="#linearGradient4098"/>
  <linearGradient x1="1.964918" y1="Infinity" x2="1.964916" y2="Infinity" id="linearGradient3333" xlink:href="#linearGradient4098"/>
  <linearGradient x1="2.561409" y1="Infinity" x2="2.561407" y2="Infinity" id="linearGradient3335" xlink:href="#linearGradient4098"/>
  <linearGradient x1="1.350883" y1="Infinity" x2="1.350881" y2="Infinity" id="linearGradient3337" xlink:href="#linearGradient4098"/>
 </defs>
 <g>
  <title>Layer 1</title>
  <g id="layer1">
   <path d="m10.79955,444.629272l9.899489,-18.384766c-19.79899,-57.982788 0,-95.459412 0,-95.459412c0,0 -9.899489,18.384766 -9.899489,18.384766c0,0 -19.79899,37.476685 0,95.459412z" id="path3189" stroke-miterlimit="4" stroke-linejoin="round" stroke-linecap="round" stroke-width="4" stroke="#000000" fill-rule="evenodd" fill="#0d7014"/>
   <path d="m10.0041,443.675995l460.999898,0l-131.842987,-228.358994l-197.157013,0l-131.999898,228.358994l0,0z" id="path3187" stroke-miterlimit="4" stroke-linejoin="round" stroke-width="4" stroke="#000000" fill-rule="evenodd" fill="#6bdb7e"/>
   <path d="m144,216.3125l-128.53125,222.375l441.531281,0l-128.375031,-222.375l-184.625,0z" id="path4702" stroke-miterlimit="4" stroke-linejoin="round" stroke-width="4" fill-rule="evenodd" fill-opacity="0.313725" fill="#000000"/>
   <path d="m21.699051,426.951599c-19.798991,-57.982727 0,-95.459412 0,-95.459412l421.789139,0.353577l0,95.105835l-421.789139,0z" id="path3191" stroke-miterlimit="4" stroke-linecap="round" stroke-width="4" stroke="#000000" fill-rule="evenodd" fill="#ffffff"/>
   <path d="m21.699051,426.951599c-19.798991,-57.982727 0,-95.459412 0,-95.459412l421.789139,0.353577l0,95.105835l-421.789139,0z" id="path4652" stroke-miterlimit="4" stroke-linecap="round" stroke-width="4" stroke="#000000" fill-rule="evenodd" fill="url(#Strips1_1)" opacity="0.192982"/>
   <path d="m11.0041,348.626007l460.999898,0l-131.842987,-228.359009l-197.157013,0l-131.999898,228.359009l0,0z" id="path2415" stroke-miterlimit="4" stroke-linejoin="round" stroke-width="4" stroke="#000000" fill-rule="evenodd" fill="#71ce8b"/>
   <path d="m430.662537,294.064117a165.564163,46.564159 0 1 1 -331.128357,0a165.564163,46.564159 0 1 1 331.128357,0z" id="path4721" stroke-miterlimit="4" stroke-linecap="round" stroke-width="7.769706" fill-rule="nonzero" fill-opacity="0.313725" fill="#000000"/>
   <path d="m235.004135,344.152161a14.25,23.023809 0 1 1 -28.5,0a14.25,23.023809 0 1 1 28.5,0z" id="path3226" stroke-miterlimit="4" stroke-linejoin="round" stroke-linecap="round" stroke-width="2.868705" stroke="#000000" fill-rule="nonzero" fill="url(#linearGradient3337)"/>
   <path d="m200.504135,344.152161a14.25,23.023809 0 1 1 -28.5,0a14.25,23.023809 0 1 1 28.5,0z" id="path3228" stroke-miterlimit="4" stroke-linejoin="round" stroke-linecap="round" stroke-width="2.868705" stroke="#000000" fill-rule="nonzero" fill="url(#linearGradient3335)"/>
   <path d="m217.504135,344.152161a14.25,23.023809 0 1 1 -28.5,0a14.25,23.023809 0 1 1 28.5,0z" id="path3230" stroke-miterlimit="4" stroke-linejoin="round" stroke-linecap="round" stroke-width="2.868705" stroke="#000000" fill-rule="nonzero" fill="url(#linearGradient3333)"/>
   <path d="m312.00415,344.152161a14.25,23.023809 0 1 1 -28.5,0a14.25,23.023809 0 1 1 28.5,0z" id="path3224" stroke-miterlimit="4" stroke-linejoin="round" stroke-linecap="round" stroke-width="2.868705" stroke="#000000" fill-rule="nonzero" fill="url(#linearGradient3331)"/>
   <path d="m277.50415,344.152161a14.25,23.023809 0 1 1 -28.500015,0a14.25,23.023809 0 1 1 28.500015,0z" id="path3220" stroke-miterlimit="4" stroke-linejoin="round" stroke-linecap="round" stroke-width="2.868705" stroke="#000000" fill-rule="nonzero" fill="url(#linearGradient3329)"/>
   <path d="m294.50415,344.152161a14.25,23.023809 0 1 1 -28.5,0a14.25,23.023809 0 1 1 28.5,0z" id="path3222" stroke-miterlimit="4" stroke-linejoin="round" stroke-linecap="round" stroke-width="2.868705" stroke="#000000" fill-rule="nonzero" fill="url(#linearGradient3327)"/>
   <path d="m186.254135,321.125c-5.806396,0 -10.780319,5.630341 -13,13.6875c18.971085,5.07428 39.814163,8.034149 61.71875,8.4375c-0.29837,-12.284821 -6.542877,-22.125 -14.21875,-22.125c-3.300903,0 -6.333298,1.827484 -8.75,4.875c-2.416702,-3.047516 -5.449097,-4.875 -8.75,-4.875c-3.185776,0 -6.126053,1.704834 -8.5,4.5625c-2.373947,-2.857666 -5.314224,-4.5625 -8.5,-4.5625zm77.000015,0c-7.656219,0 -13.890717,9.790466 -14.218765,22.03125c21.880569,-0.704346 42.61586,-3.983551 61.437515,-9.34375c-2.347229,-7.515625 -7.157135,-12.6875 -12.71875,-12.6875c-3.300903,0 -6.333313,1.827484 -8.75,4.875c-2.416718,-3.047516 -5.449097,-4.875 -8.75,-4.875c-3.185791,0 -6.126068,1.704834 -8.5,4.5625c-2.373962,-2.857666 -5.31424,-4.5625 -8.5,-4.5625z" id="path3250" stroke-miterlimit="4" stroke-linecap="round" stroke-width="6.428549" fill-rule="nonzero" fill-opacity="0.313725" fill="#000000"/>
   <path d="m405.662537,169.064148a165.564163,165.564163 0 1 1 -331.128357,0a165.564163,165.564163 0 1 1 331.128357,0z" id="path2385" stroke-miterlimit="4" stroke-linecap="round" stroke-width="5" stroke="#000000" fill-rule="nonzero" fill="#784421"/>
   <path d="m321.936157,250.846207c-26.5,-4.923599 -2.247375,21.631149 -6.31076,31.232712c-16.063354,-7.898407 -9.942688,18.250031 -17.206604,25.513916c-13.763885,-0.736084 -15.912323,13.14325 -25.513916,17.206604c-11.601593,-6.436615 -20.156296,6.31076 -31.232742,6.31076c-11.076416,0 -17.631134,-12.247406 -31.232727,-6.31076c-9.601578,-4.063354 -11.750031,-17.442688 -25.513901,-17.206604c-7.263916,-7.263885 -6.143234,-34.912323 -17.206619,-25.513916c-4.06337,-9.601563 14.68924,-38.15625 -6.310745,-31.232712c0,-11.076416 22.247375,-31.631149 6.310745,-31.232712c4.06337,-9.601593 24.442719,-16.750015 17.206619,-25.513901c14.527756,-14.527832 34.593781,-23.517365 56.746628,-23.517365c22.152878,0 42.218887,8.989532 56.746658,23.517365c-10.736084,5.26387 13.14325,15.912308 17.206604,25.513901c-17.936615,-0.898422 6.31076,20.156296 6.31076,31.232712z" id="path3167" stroke-miterlimit="4" stroke-linejoin="round" stroke-linecap="round" stroke-width="4.411765" stroke="#000000" fill-rule="nonzero" fill="#ffffff"/>
   <path d="m386.37915,90.5c1.980591,10.232452 3.031219,20.785431 3.031219,31.59375c0,3.729889 -0.131744,7.425095 -0.374969,11.09375c-3.672577,-0.182816 -7.578308,0.019043 -11.750031,0.625c-35.215424,7.498657 -20.173309,51.664063 -29.343719,97.875c-30.342316,34.328705 -74.709442,55.96875 -124.093765,55.96875c-30.373291,0 -58.83165,-8.207245 -83.3125,-22.5c-23.679207,-55.442596 8.076202,-115.664627 -33.656258,-126.0625c-46.110458,-8.325363 -63.970478,34.456253 -34.15625,98.5625c16.460983,35.394226 43.7229,52.779755 63.781258,59.53125c28.363373,22.800385 64.39183,36.4375 103.59375,36.4375c45.949539,0 87.557205,-18.739441 117.562515,-49c17.453491,-8.717468 36.861511,-24.594971 50.34375,-51.15625c25.212402,-49.670898 20.384705,-87.078415 -5.46875,-97.4375c-3.169861,-16.136017 -8.666016,-31.441887 -16.15625,-45.53125z" id="path3211" stroke-miterlimit="4" stroke-width="5" fill-rule="evenodd" fill-opacity="0.313725" fill="#000000"/>
   <path d="m106.740707,131.044983c48.111206,17.300049 -14.163437,94.1427 37.819138,161.191772c9.608383,12.39325 -57.867966,2.090759 -81.722775,-66.585022c-23.198322,-66.785767 -1.13237,-107.539093 43.903637,-94.60675z" id="path3169" stroke-miterlimit="4" stroke-width="5" stroke="#000000" fill-rule="evenodd" fill="#784421"/>
   <path d="m373.183319,131.044983c-48.111206,17.300049 14.163422,94.1427 -37.819153,161.191772c-9.608398,12.39325 57.86795,2.090759 81.722809,-66.585022c23.198303,-66.785767 1.132324,-107.539093 -43.903656,-94.60675z" id="path3800" stroke-miterlimit="4" stroke-width="5" stroke="#000000" fill-rule="evenodd" fill="#784421"/>
   <path d="m355.508118,121.997528c13.388672,-4.609009 27.221008,7.583862 29.865173,14.179932c-13.512329,-3.452271 -19.719635,-4.425781 -23.218414,-1.380707c1.506744,3.371429 17.408264,6.741913 22.337372,28.871155c-12.428802,-8.616638 -22.303589,-18.575592 -26.272461,-14.483154c2.881622,5.033875 6.199524,14.497437 3.963623,23.880798c-7.141541,-9.424438 -14.438782,-19.378479 -21.141541,-19.647827" id="path2413" stroke-miterlimit="4" stroke-linejoin="round" stroke-linecap="round" stroke-width="5" stroke="#000000" fill-rule="evenodd" fill="#784421"/>
   <path d="m194.147385,40.264011c-31.234467,0 -56.603348,29.331387 -56.603348,65.471706c0,36.140289 25.368881,65.47168 56.603348,65.47168c18.355652,0 34.644379,-10.140869 44.984772,-25.829437c10.339661,15.699921 26.663864,25.829437 45.027328,25.829437c31.234436,0 56.603271,-29.33139 56.603333,-65.47168c0,-36.14032 -25.368896,-65.471706 -56.603333,-65.471706c-18.361298,0 -34.687485,10.132629 -45.027328,25.829472c-10.340576,-15.685192 -26.631439,-25.829472 -44.984772,-25.829472z" id="path2387" stroke-miterlimit="4" stroke-linecap="round" stroke-width="5" stroke="#000000" fill-rule="nonzero" fill="#ffffff"/>
   <path d="m240.846848,151.172974c-9.287994,0 -19.383636,10.327209 -18.979797,16.84967c0.403809,6.522461 16.556854,33.699402 20.191284,33.699402c3.63443,0 17.768295,-26.633362 17.364517,-34.24292c-0.40387,-7.609558 -12.518631,-16.849731 -18.576004,-16.306152z" id="path3407" stroke-miterlimit="4" stroke-width="5" fill-rule="evenodd" fill-opacity="0.313725" fill="#000000"/>
   <path d="m238.72554,140.564087c-9.287994,0 -19.383636,9.306213 -18.979828,15.183777c0.403839,5.877625 16.556885,30.367615 20.191284,30.367615c3.63443,0 17.768326,-24.000183 17.364487,-30.857361c-0.403778,-6.857239 -12.51857,-15.183838 -18.575943,-14.694031z" id="path2391" stroke-miterlimit="4" stroke-width="5" stroke="#000000" fill-rule="evenodd" fill="url(#linearGradient3211)"/>
   <path d="m235.556381,110.164841a16.38711,16.38711 0 1 1 -32.774246,0a16.38711,16.38711 0 1 1 32.774246,0z" id="path2411" stroke-miterlimit="4" stroke-linecap="round" stroke-width="3.169292" stroke="#000000" fill-rule="nonzero" fill="#000000"/>
   <path d="m124.147598,121.997528c-13.388687,-4.609009 -27.221039,7.583862 -29.865189,14.179932c13.512283,-3.452271 19.719627,-4.425781 23.218384,-1.380707c-1.506744,3.371429 -17.408257,6.741913 -22.337326,28.871155c12.428772,-8.616638 22.303535,-18.575592 26.2724,-14.483154c-2.881577,5.033875 -6.199509,14.497437 -3.963554,23.880798c7.141464,-9.424438 14.438713,-19.378479 21.141502,-19.647827" id="path3193" stroke-miterlimit="4" stroke-linejoin="round" stroke-linecap="round" stroke-width="5" stroke="#000000" fill-rule="evenodd" fill="#784421"/>
   <path d="m252.974686,51.282711c13.275925,-32.159721 35.665573,-36.513211 35.665573,-36.513211c0,0 -12.453278,16.775331 -1.17395,12.108769c17.465302,-7.22587 72.996704,15.418301 72.996704,15.418301c0,0 -73.574402,-17.126009 -107.488327,8.986141z" id="path3283" stroke-miterlimit="4" stroke-linejoin="round" stroke-width="5" stroke="#000000" fill-rule="evenodd" fill="#ffffff"/>
   <path d="m222.533554,48.282749c-13.275909,-32.15976 -35.665588,-36.513249 -35.665588,-36.513249c0,0 12.453308,16.775331 1.173981,12.108769c-17.465302,-7.22587 -72.99675,15.418301 -72.99675,15.418301c0,0 73.574448,-17.126009 107.488358,8.986179z" id="path3285" stroke-miterlimit="4" stroke-linejoin="round" stroke-width="5" stroke="#000000" fill-rule="evenodd" fill="#ffffff"/>
   <path d="m277.056366,110.164841a16.38711,16.38711 0 1 1 -32.774231,0a16.38711,16.38711 0 1 1 32.774231,0z" id="path3301" stroke-miterlimit="4" stroke-linecap="round" stroke-width="3.169292" stroke="#000000" fill-rule="nonzero" fill="#000000"/>
   <path d="m217.504135,104.425926a4.25,4.25 0 1 1 -8.5,0a4.25,4.25 0 1 1 8.5,0z" id="path3341" stroke-miterlimit="4" stroke-linejoin="round" stroke-width="5" fill-rule="nonzero" fill="#ffffff"/>
   <path d="m259.00412,104.425926a4.25,4.25 0 1 1 -8.499985,0a4.25,4.25 0 1 1 8.499985,0z" id="path3343" stroke-miterlimit="4" stroke-linejoin="round" stroke-width="5" fill-rule="nonzero" fill="#ffffff"/>
   <path d="m388.94165,128.65625c-0.412628,-0.000595 -0.831665,0.020538 -1.25,0.03125c16.212067,13.064545 23.073303,43.297119 14.78125,85.34375c-11.023071,55.894745 -53.576599,80.007996 -67.71875,81.28125c4.592102,6.526428 60.970886,-8.125763 82.343719,-69.65625c20.298553,-58.437546 5.920746,-96.950134 -28.156219,-97z" id="path3200" stroke-miterlimit="4" stroke-width="5" fill-rule="evenodd" fill-opacity="0.313725" fill="#000000"/>
   <path d="m55.066639,160.84375c-3.45179,16.505814 -1.298538,38.672653 7.78125,64.8125c23.854824,68.675812 91.327129,78.987 81.718746,66.59375c-4.108917,-5.299835 -7.520401,-10.67453 -10.3125,-16.0625c-18.951492,-4.541412 -54.047798,-24.376236 -69.90625,-70.03125c-5.879543,-16.926666 -8.853886,-32.18045 -9.281246,-45.3125zm71.281254,6.34375c-0.882866,8.536072 -1.856224,17.611893 -2.28125,27.125c0.993286,-9.790634 2.079384,-18.941132 2.28125,-27.125z" id="path3205" stroke-miterlimit="4" stroke-width="5" fill-rule="evenodd" fill-opacity="0.313725" fill="#000000"/>
   <path d="m121.938461,390.175964l-56.5,0c0,0 -12.82745,5.533325 10.578445,34.583313c-0.103928,-19.366638 14.852936,-20.75 14.852936,-20.75c0,0 19.603905,19.366699 40.862747,27.666687c-25.535309,-33.200012 -7.729424,-39.424988 -9.794128,-41.5z" id="path3216" stroke-miterlimit="4" stroke-linejoin="round" stroke-width="4" fill-rule="evenodd" fill-opacity="0.313725" fill="#000000"/>
   <path d="m120.585533,390.675964l-56.500008,0c0,0 -16.999996,4 -15.499996,25c14.5,-14 30.500004,-15 30.500004,-15c0,0 5,14 20,20c-0.5,-24 22,-28.5 21.5,-30z" id="path2424" stroke-miterlimit="4" stroke-linejoin="round" stroke-width="4" stroke="#000000" fill-rule="evenodd" fill="#4b5f91"/>
  </g>
 </g>
</svg>